{"title":"Mission.Impossible.Rogue.Nation.2015.BRRip.720p-PRiSTiNE","uid":12879678,"size":956985320,"categoryP":"video","categoryS":"hd___movies","magnet":"?xt=urn:btih:1e2776d12895fb6571fce6dd2f28728afa679a29&amp;dn=Mission.Impossible.Rogue.Nation.2015.BRRip.720p-PRiSTiNE&amp;tr=udp%3A%2F%2Ftracker.leechers-paradise.org%3A6969&amp;tr=udp%3A%2F%2Fzer0day.ch%3A1337&amp;tr=udp%3A%2F%2Fopen.demonii.com%3A1337&amp;tr=udp%3A%2F%2Ftracker.coppersurfer.tk%3A6969&amp;tr=udp%3A%2F%2Fexodus.desync.com%3A6969","seeders":4,"leechers":6,"uploader":"VYTOP2PDL","files":7,"time":1448995477,"description":"Mission.Impossible.Rogue.Nation.2015.BRRip.720p.x264.AAC-PRiSTiNE\r\n\r\n\r\nGenre: Action, Adventure, Thriller  \nhttp://www.imdb.com/title/tt2381249/\r\n\r\n\r\nGeneral\r\nFormat                         : MPEG-4\r\nFile size                      : 901 MiB\r\nDuration                       : 2h 11mn\r\nOverall bit rate               : 958 Kbps\r\n\r\nVideo\r\nFormat                         : AVC\r\nBit rate                       : 891 Kbps\r\nWidth                          : 1 264 pixels\r\nHeight                         : 528 pixels\r\nDisplay aspect ratio           : 2.40:1\r\nFrame rate mode                : Constant\r\nFrame rate                     : 23.976 fps\r\nBit depth                      : 8 bits\r\nStream size                    : 838 MiB (93%)\r\nWriting library                : x264 \r\n\r\nAudio\r\nFormat                         : AAC\r\nBit rate mode                  : Variable\r\nBit rate                       : 63.9 Kbps\r\nMaximum bit rate               : 101 Kbps\r\nChannel(s)                     : 2 channels\r\nChannel positions              : Front: L R\r\nSampling rate                  : 48.0 KHz / 24.0 KHz\r\nStream size                    : 60.2 MiB (7%)\r\n\r\nSubtitle                       : Yes (English)\r\n \nhttp://ititli.com/lF \nhttp://ititli.com/lJ \nhttp://ititli.com/l5 \nhttp://ititli.com/lB \nhttp://ititli.com/lN \nhttp://ititli.com/l7\r\n\r\n----------------------------------------------------------------------------------------------------\r\n\r\n\r\nEncoder Notes: Looking For Early Access To Anything You Can Provide DVDScr, R5, DVDR, BluRay, Direct\r\nAudio, Music Releases and Seedboxes. If You Got anything to offer please contact us","torrent":{"xt":"urn:btih:1e2776d12895fb6571fce6dd2f28728afa679a29","amp;dn":"Mission.Impossible.Rogue.Nation.2015.BRRip.720p-PRiSTiNE","amp;tr":["udp%3A%2F%2Ftracker.leechers-paradise.org%3A6969","udp%3A%2F%2Fzer0day.ch%3A1337","udp%3A%2F%2Fopen.demonii.com%3A1337","udp%3A%2F%2Ftracker.coppersurfer.tk%3A6969","udp%3A%2F%2Fexodus.desync.com%3A6969"],"infoHash":"1e2776d12895fb6571fce6dd2f28728afa679a29","infoHashBuffer":{"type":"Buffer","data":[30,39,118,209,40,149,251,101,113,252,230,221,47,40,114,138,250,103,154,41]},"announce":[],"urlList":[]}}